<?xml version="1.0" encoding="utf-8"?>
<!-- Generator: Adobe Illustrator 24.0.1, SVG Export Plug-In . SVG Version: 6.00 Build 0)  -->
<svg version="1.1" id="Camada_1" xmlns="http://www.w3.org/2000/svg" xmlns:xlink="http://www.w3.org/1999/xlink" x="0px" y="0px"
	 viewBox="0 0 1208 274" style="enable-background:new 0 0 1208 274;" xml:space="preserve">
<style type="text/css">
	.st0{fill:#FEFEFE;}
	.st1{fill:#009F16;}
	.st2{fill:#36B347;}
	.st3{fill:#0BA420;}
	.st4{fill:#24AD36;}
	.st5{fill:#50BD5F;}
	.st6{fill:#A2DCAA;}
	.st7{fill:#F4FAF5;}
	.st8{fill:#FDFEFD;}
</style>
<g>
	<path class="st0" d="M1.3,145.42C1.3,99.8,1.35,54.17,1.21,8.55c-0.01-3.67,0.75-4.6,4.56-4.6c361.91,0.1,723.81,0.1,1085.72,0.1
		c37.96,0,75.91,0.04,113.87-0.08c3.12-0.01,3.83,0.7,3.83,3.81c-0.1,88.42-0.11,176.85,0.03,265.27c0.01,3.93-0.64,4.9-4.8,4.9
		c-354.08-0.13-708.17-0.12-1062.25-0.12c-0.45-2.77,2.49-3.24,3.44-5.06c14.82-12.94,28.07-27.28,39.17-43.53
		c4.89-7.17,8.72-14.86,11.32-23.16c1.52-4.86,2.55-5.44,7.2-3.58c12.82,5.13,26,9.1,39.39,12.42c8.74,1.76,17.56,3.03,26.36,4.43
		c2.33,0.37,4.64,0.12,6.94,0.24c1.97,0.69,4.22,0.04,6.15,0.97c-1.52-0.77-3.35-0.23-4.92-0.84c-11.07-0.5-21.93-2.36-32.74-4.64
		c-14.38-2.9-28.07-7.7-40.98-14.72c-3.09-1.68-4.68-3.61-3.91-7.52c3.02-15.37,1.03-30.15-5.43-44.49
		c-5.32-11.82-13.19-21.74-21.82-31.19c-2.09-2.29-3.9-4.56-3.08-7.91c1.47-9.35,4.46-18.36,6.14-27.67
		c1.85-10.23,2.08-20.4-0.37-30.57c-0.66-2.76-1.61-5.39-2.73-7.98c-1.93-7.36-7.63-12.56-10.14-17.99c3.85,5,5.39,12.31,7,19.6
		c3.01,16.81-1.27,32.5-7.47,47.85c-1.23,3.04-1.53,6.49-3.82,9.08c-1.31,0.94-2.54,0.59-3.62-0.35
		c-13.68-11.84-29.28-21.36-42.09-34.25c-15.11-15.2-25.35-33.11-29.38-54.32c-1.14-5.98-1.2-5.98-6.77-3.14
		c-15.97,8.12-30.91,17.59-42.25,31.82c-10.31,12.93-13.32,27.47-9.85,43.53c1.64,7.61,1,8.23-6.78,8.05
		c-1.5-0.03-2.95-0.29-4.33-0.48c3.7,1.24,7.5,2.43,11.32,3.58c4.48,1.34,7.06,7.54,5.79,12.9c-0.62,2.63-1.96,4.9-3.59,7.04
		c-6.85,8.97-13.77,17.88-20.72,26.78C4.54,144.11,3.64,145.98,1.3,145.42z"/>
	<path class="st1" d="M1.3,153.38c0-1.33,0-2.65,0-3.98c6.36-4.78,9.38-12.33,14.98-17.78c4.84-4.7,7.77-10.98,12.59-15.78
		c3.48-3.47,4.05-13.37,1.43-17.91c-4.19-7.26-6.41-14.94-5.41-23.43c0.58-4.88-1.33-10.01,1.14-14.7c3.64-6.92,6-14.34,11.51-20.49
		c9.66-10.77,21.36-18.54,33.56-25.84c1.02-0.61,2.03-1.38,3.16-0.44c0.98,0.82,1.02,2.05,0.85,3.22c-0.45,2.95-0.8,6.03-1.82,8.75
		c-5.21,13.94-2.7,27.55,0.26,41.51c3.56,16.77,12.32,30.37,23.09,43.14c2.43,2.88,4.67,5.62,8.72,5.95
		c7.63,4.94,13.46,11.86,19.5,18.4c9.27,10.05,16.94,21.31,21.55,34.38c7.72,21.9,4.31,42.34-9.02,60.95
		c-12.18,17-28.31,29.78-46.37,40.2c-1.44,0.83-3.16,1.84-4.55,0.32c-1.16-1.27-0.2-2.9,0.48-4.18c7.67-14.31,8.61-29.77,7.95-45.52
		c-0.27-6.44-2.22-8.21-8.76-7.6c-8.2,0.76-15.93,3.34-23.65,6.01c-4.73,1.64-9.5,3.02-14.62,2.84c-3.05-0.11-5.93-0.72-8.7-1.97
		c-6.11-2.78-8.4-6.22-7.98-12.86c0.35-5.58-1.4-9.98-5.85-13.5c-4.73-3.74-4.74-4.43-1.12-9.56c0.89-1.27,0.96-2.01-0.41-2.75
		c-0.59-0.32-1.22-0.54-1.82-0.83c-7.66-3.75-8.17-5.54-3.76-12.96c3.24-5.44,2.48-6.98-3.65-8.55
		C9.99,157.25,4.88,157.28,1.3,153.38z"/>
	<path class="st0" d="M1.3,153.38c5.35,1.79,10.72,3.39,16.3,4.43c4.79,0.89,5.53,3.08,3.16,7.57c-5.34,10.06-5.34,10.06,5.1,14.72
		c0.9,0.4,1.9,0.65,2.39,1.74c-1.32,2.7-6.2,2.3-6.08,5.84c0.11,3.43,4.35,3.74,6.18,6.02c3,3.71,4.98,7.76,4.08,12.76
		c-0.95,5.26,0.97,9.04,5.82,11.35c5.3,2.52,10.81,2.82,16.56,1.56c9.59-2.11,18.47-6.76,28.35-7.75c1.49-0.15,2.98-0.35,4.47-0.41
		c6.54-0.26,8.13,1.31,8.63,7.91c1.34,17.68-0.99,34.67-10.18,51.25c3.89-0.86,6.03-3,8.43-4.48c13.09-8.06,25.16-17.38,35.36-28.95
		c23.07-26.17,25.36-56.07,6.67-85.62c-8.43-13.33-19.76-24.06-31.01-34.87C95.18,108.17,88,97.44,82.15,85.84
		c-6.21-12.3-9.55-25.57-9.94-39.27c-0.3-10.44,1.31-20.84,5.33-30.66c0.69-1.69,1.68-3.6,3.9-3.18c2.13,0.4,1.63,2.59,1.99,4.12
		c0.15,0.64,0.13,1.32,0.09,1.98c-1.61,26.29,11.08,46.57,28.07,64.71c11,11.75,23.89,21.59,35.17,33.12
		c3.74,3.82,5.57,7.51,4.94,13.18c-1.55,14.03,1.1,27.48,8.43,39.7c4.94,8.22,11.84,14.77,19.73,20.13
		c4.02,2.73,5.79,5.89,5.63,10.74c-0.49,14.03-5.48,26.61-12.52,38.39c-7.35,12.28-16.15,23.52-26.87,33.16
		c-2.79,1.77-4.94,4.39-7.94,5.89c-44.37,0-88.74-0.04-133.11,0.08c-3.09,0.01-3.84-0.66-3.83-3.79
		C1.35,233.87,1.3,193.63,1.3,153.38z"/>
	<path class="st1" d="M144.99,271.57c10.48-10.7,20.4-21.84,27.8-34.97c6.51-11.57,10.82-23.81,11.67-37.18
		c0.21-3.32-0.69-5.3-3.61-7.32c-22.94-15.85-34.16-37.23-30.09-65.45c0.39-2.69-0.68-4.3-2.36-6.09
		c-9.45-10.07-19.79-19.19-29.94-28.53C107.03,81.49,97.01,69.87,90.04,55.8c-6.04-12.19-8.95-24.91-7.95-38.49
		c0.1-1.37,1.02-3.5-0.81-3.92c-2.3-0.53-2.19,2.04-2.66,3.42c-10.5,31.03-3.84,59.12,15.01,84.99c3.7,5.08,7.93,9.77,11.91,14.64
		c-3.88,0.46-6.05-1.68-8.78-4.27c-4.71-4.46-7.95-9.87-11.33-15.09c-4.95-7.65-10.46-15.38-11.91-24.59
		c-1.24-7.93-3.75-15.56-4.62-23.59c-0.78-7.25,0.42-13.99,2.24-20.84c1.25-4.69,2.15-9.48,3.36-14.89
		c-10.05,5.87-18.81,11.81-27.3,18.45c-4.43,3.47-8.39,7.71-11.6,11.57c-3.64,4.37-6.09,10.72-8.33,16.55
		c-1.88,4.91,0.07,10.16-1.19,14.86c-1.79,6.64,3.03,12.01,2.33,18.25c-0.07,0.6,0.76,1.35,1.27,1.96
		c6.26,7.59,4.85,17.16-2.52,24.23c-3.01,2.89-4.49,7.27-7.68,10.53c-4.63,4.74-8.27,10.47-12.16,15.89
		c-1.56,2.17-3.41,3.55-6.02,3.94c0-1.33,0-2.65,0-3.98c9.34-10.57,18.08-21.64,25.92-33.33c4.49-6.69,0.92-13.8-6.69-15.72
		c-3.97-1-7.96-2.07-11.44-5.44c4.33,0.4,8.07,0.75,11.81,1.1c2.31,0.21,3.43-0.31,2.69-3.06c-6.79-25.31,2.24-45.08,21.64-61.26
		c10.68-8.9,22.68-15.63,35.01-21.9c2.21-1.12,2.74-0.59,3.04,1.75c3.73,29.03,19.42,51,41.57,68.99
		c10.49,8.52,21.32,16.63,31.99,24.93c0.46-0.19,1.05-0.55,1.41-0.35c4.26,2.39,8.42,4.95,11.89,8.44c-0.4,2.5,0.57,4.29,2.39,6.09
		c14.08,13.92,24.41,30.1,28.52,49.64c1.91,9.09,1.81,18.45-0.08,27.56c-0.7,3.38,0.2,4.71,2.88,6.19
		c12.66,6.99,26.18,11.68,40.17,15.14c0.09,1.92-1.14,1.29-2.15,1.11c-13.77-2.36-26.92-6.72-39.82-11.95
		c-1.55-0.63-3.27-2.16-4.12,0.99c-4.96,18.31-16.46,32.66-28.61,46.6c-7.19,8.25-14.56,16.29-23.44,22.82
		c-0.56,0.48-1.17,0.73-1.62-0.05C143.7,272.78,144.75,272.29,144.99,271.57z"/>
	<path class="st2" d="M144.99,271.57c0.17,0.78-1.16,2.15,0.87,2.2c-0.52,2-2.79,2.42-3.7,4.07c-1.33,0-2.66,0-4,0
		C140.04,275.31,142.39,273.3,144.99,271.57z"/>
	<path class="st1" d="M264.04,136.77c0-23.05,0.08-46.1-0.08-69.15c-0.03-3.72,0.7-5,4.78-4.95c18.13,0.25,36.27,0.1,54.41,0.11
		c36.55,0.01,61.05,22.3,64.77,58.68c1.58,15.48,1.24,30.8-3.17,45.79c-8.07,27.43-30.09,43.62-59.48,43.84
		c-18.97,0.14-37.94-0.07-56.91,0.11c-3.43,0.03-4.44-0.74-4.41-4.3C264.13,183.53,264.04,160.15,264.04,136.77z"/>
	<path class="st1" d="M1003.74,197.41c-3.48,2.98-6.24,5.6-9.26,7.87c-11,8.29-23.41,9.96-36.42,6.55
		c-12.21-3.2-20.25-13.44-20.54-27.47c-0.54-26.51-0.22-53.05-0.37-79.57c-0.02-2.98,1.46-3.08,3.7-3.05
		c7.82,0.08,15.65,0.24,23.45-0.06c3.73-0.14,4.29,1.3,4.27,4.56c-0.13,20.89-0.08,41.78-0.06,62.67c0.01,16.95,9.49,23.31,25.35,17
		c0.31-0.12,0.59-0.31,0.89-0.44c9.03-3.83,9.03-3.82,9.03-13.33c0-21.72,0.1-43.44-0.09-65.16c-0.04-3.99,0.78-5.52,5.1-5.31
		c7.64,0.36,15.3,0.19,22.95,0.05c2.62-0.05,3.42,0.79,3.41,3.4c-0.07,34.32-0.08,68.64,0.01,102.96c0.01,2.77-1.08,3.29-3.52,3.25
		c-7.15-0.12-14.31-0.11-21.46,0c-2.36,0.04-3.63-0.52-4.01-3.14C1005.7,204.8,1004.69,201.49,1003.74,197.41z"/>
	<path class="st1" d="M537.39,199.97c-10.01,9.87-21.5,13.93-34.86,13.36c-13-0.55-23.71-7.32-27.52-17.88
		c-4.37-12.13-0.74-26.85,8.79-35.06c10.89-9.38,24.28-12.55,37.96-14.91c3.93-0.68,7.89-1.3,11.87-1.53
		c3.07-0.18,3.64-1.45,3.71-4.32c0.32-12.62-5.08-18.38-17.89-18.23c-10.6,0.12-20.73,2.72-30.4,6.95
		c-3.03,1.33-4.27,0.81-5.05-2.38c-1.25-5.14-2.84-10.2-4.36-15.27c-0.46-1.52-0.96-2.61,1.27-3.34
		c19.82-6.48,39.91-10.75,60.72-5.73c17.93,4.32,27.09,16.5,27.09,34.84c0,23.23-0.1,46.46,0.09,69.69
		c0.03,3.93-0.61,5.57-5.02,5.25c-6.13-0.44-12.32-0.34-18.47-0.02c-3.69,0.19-5.52-0.89-5.97-4.63
		C539.13,204.64,538.2,202.62,537.39,199.97z"/>
	<path class="st1" d="M891.04,199.97c-10.01,9.87-21.5,13.93-34.85,13.36c-13-0.55-23.71-7.32-27.52-17.88
		c-4.37-12.13-0.74-26.85,8.79-35.06c10.89-9.38,24.28-12.55,37.96-14.91c3.93-0.68,7.89-1.3,11.87-1.53
		c3.07-0.18,3.64-1.45,3.72-4.32c0.32-12.62-5.08-18.38-17.89-18.23c-10.6,0.12-20.73,2.72-30.4,6.95
		c-3.03,1.32-4.27,0.81-5.05-2.38c-1.25-5.14-2.84-10.2-4.36-15.27c-0.46-1.52-0.96-2.61,1.27-3.34
		c19.82-6.48,39.91-10.75,60.72-5.73c17.93,4.32,27.09,16.5,27.09,34.84c0,23.23-0.1,46.46,0.09,69.69
		c0.03,3.93-0.61,5.57-5.02,5.25c-6.13-0.44-12.33-0.34-18.47-0.02c-3.69,0.19-5.52-0.89-5.97-4.63
		C892.78,204.64,891.84,202.62,891.04,199.97z"/>
	<path class="st1" d="M1176.73,200.01c-9.82,9.71-21.27,13.88-34.64,13.32c-13.05-0.54-23.76-7.18-27.64-17.71
		c-4.43-12.03-0.87-26.95,8.56-35.13c10.85-9.41,24.25-12.62,37.92-15c4.25-0.74,8.57-1.12,12.85-1.77c1.01-0.15,2.21,0.18,2.81-1.4
		c2.86-7.59-1.8-17.43-9.72-19.8c-8.65-2.58-17.18-0.64-25.57,1.43c-4.65,1.15-9.22,2.79-13.64,4.65c-2.6,1.09-3.38,0.49-4.03-2
		c-1.38-5.28-3.04-10.49-4.55-15.73c-0.38-1.32-1.41-2.66,1.02-3.46c19.65-6.44,39.57-10.76,60.23-5.93
		c18.68,4.37,27.77,16.31,27.77,35.28c0,23.4-0.07,46.79,0.08,70.19c0.02,3.4-0.68,4.61-4.31,4.43c-6.31-0.32-12.67-0.36-18.97,0.01
		c-3.97,0.23-5.73-1.13-6.26-4.93C1178.37,204.43,1177.49,202.48,1176.73,200.01z"/>
	<path class="st1" d="M760.96,213.28c-12.5,0-24.85-1.27-37.1-3.88c-3.01-0.64-3.9-1.68-3.17-4.61c1.37-5.45,2.79-10.92,3.67-16.46
		c0.48-3.01,1.61-2.86,3.9-2.18c8.43,2.52,16.97,4.6,25.74,5.62c4.84,0.56,9.63,0.6,14.26-1.13c3.83-1.43,6.67-3.92,7.09-8.17
		c0.4-4.02-2.35-6.35-5.39-8.26c-5.1-3.2-10.9-4.82-16.47-6.95c-6.51-2.48-12.83-5.27-18.7-9.15c-17.5-11.59-16.97-41.16,3.03-51.65
		c8.12-4.26,16.77-6.34,25.79-6.78c14.18-0.69,28.19,0.79,42.05,3.94c3.33,0.76,4.29,1.95,3.41,5.34
		c-1.29,4.95-2.14,10.03-2.95,15.09c-0.46,2.87-1.16,3.7-4.39,2.66c-8.85-2.85-17.87-5.12-27.26-5.44
		c-3.86-0.13-7.66,0.06-11.13,1.9c-5.99,3.19-6.57,9.47-1.24,13.68c4.77,3.77,10.58,5.42,16.15,7.54
		c7.13,2.72,14.19,5.48,20.71,9.58c19.61,12.33,16.06,39.73,0.57,50.25c-10.32,7.01-21.88,9.17-34.08,9.06
		C763.95,213.27,762.46,213.28,760.96,213.28z"/>
	<path class="st1" d="M672.64,136.9c0-23.21,0.1-46.41-0.1-69.61c-0.03-3.74,0.9-4.72,4.63-4.59c8.64,0.3,17.3,0.19,25.94,0.04
		c2.81-0.05,4.1,0.32,4.09,3.68c-0.12,47.07-0.1,94.15-0.02,141.22c0.01,2.89-0.92,3.61-3.69,3.56c-8.98-0.16-17.97-0.24-26.94,0.03
		c-3.48,0.1-3.99-1.16-3.98-4.21C672.69,183.64,672.64,160.27,672.64,136.9z"/>
	<path class="st1" d="M437.21,123.66c6.7-13.16,16.1-21.1,29.68-23.6c5.75-1.06,5.78-1.01,5.78,4.83c0,6.96-0.17,13.93,0.08,20.88
		c0.11,3.13-1.01,3.83-3.93,3.96c-9.53,0.41-18.7,2.5-27.51,6.27c-3.16,1.35-4.4,3.03-4.37,6.63c0.2,21.38,0.02,42.76,0.18,64.13
		c0.02,3.34-0.62,4.6-4.27,4.46c-7.8-0.3-15.63-0.22-23.44-0.03c-2.86,0.07-3.57-0.82-3.56-3.6c0.09-34.14,0.09-68.28,0-102.42
		c-0.01-2.73,0.62-3.72,3.53-3.63c6.98,0.21,13.98,0.29,20.95-0.03c3.2-0.14,3.93,1.25,4.27,3.86
		C435.33,111.1,436.22,116.81,437.21,123.66z"/>
	<path class="st1" d="M1076.57,123.66c6.7-13.17,16.11-21.11,29.68-23.6c5.75-1.06,5.77-1.01,5.78,4.84
		c0,6.96-0.17,13.93,0.08,20.88c0.11,3.14-1.02,3.83-3.94,3.95c-9.53,0.41-18.7,2.5-27.51,6.27c-3.16,1.35-4.4,3.03-4.36,6.63
		c0.2,21.38,0.02,42.76,0.18,64.13c0.02,3.34-0.63,4.59-4.27,4.45c-7.8-0.3-15.63-0.22-23.44-0.03c-2.86,0.07-3.56-0.83-3.56-3.6
		c0.09-34.14,0.09-68.28,0-102.42c-0.01-2.74,0.63-3.71,3.53-3.63c6.98,0.21,13.98,0.29,20.95-0.03c3.21-0.15,3.93,1.26,4.27,3.87
		C1074.7,111.1,1075.58,116.81,1076.57,123.66z"/>
	<path class="st1" d="M601.62,213.08c-6.1,0.19-11.54-1.43-15.47-6.33c-7.01-8.72-2.77-22.07,7.99-25.27
		c4.01-1.19,8.1-1.43,12.28-0.59c9.25,1.86,14.34,8.08,13.78,17.06c-0.51,8.28-6.81,14.39-15.6,15.11
		C603.61,213.15,602.61,213.08,601.62,213.08z"/>
	<path class="st3" d="M170.14,109.58c-5.57-0.84-8.33-6.27-13.3-8.09c7.53-18.34,14.28-36.83,11.13-57.24
		c0.53-4.57,1.42-4.98,5.1-2.37c5.75,10.81,6.02,22.49,4.72,34.17C176.53,87.47,173.04,98.48,170.14,109.58z"/>
	<path class="st4" d="M173.07,41.88c-2.86-1.69-4.54-0.87-5.1,2.37c-1.88-7.13-3.55-14.33-7.06-20.98
		C165.77,28.95,171.11,34.29,173.07,41.88z"/>
	<path class="st5" d="M241.86,215.3c0.72-0.37,1.43-0.74,2.15-1.11c11.24,1.93,22.35,4.61,33.8,5.14c0.24,0.77,0.21,1.25-0.77,0.74
		C265.15,219.7,253.41,218.18,241.86,215.3z"/>
	<path class="st6" d="M277.04,220.07c0.26-0.25,0.51-0.49,0.77-0.74c1.93-0.14,3.9-0.46,5.74,1.55
		C281.09,221.1,278.94,221.96,277.04,220.07z"/>
	<path class="st7" d="M182.87,180.82c-8.95-9.54-13.27-21.03-14.31-33.92C175.87,157.14,180.95,168.31,182.87,180.82z"/>
	<path class="st0" d="M297.85,137.15c0-13.59,0.24-27.19-0.13-40.77c-0.13-4.62,1.39-5.54,5.57-5.29c5.8,0.35,11.64,0.08,17.46,0.09
		c16.45,0.03,26.33,7.15,30.58,22.94c4.16,15.48,4.11,31.15-0.38,46.59c-4.3,14.79-14.33,21.98-29.81,22.03
		c-6.49,0.02-12.98-0.16-19.45,0.07c-3.09,0.11-3.92-0.84-3.89-3.89C297.94,164.99,297.85,151.07,297.85,137.15z"/>
	<path class="st8" d="M537.61,171.34c0,0.17,0.02,0.33,0,0.5c-0.52,4.48,1.77,9.5-3.89,12.8c-6.77,3.94-13.68,6.32-21.32,3.86
		c-7.95-2.57-9.83-11.98-3.74-18.13c5.25-5.31,12.23-7.06,19.27-8.52c9.68-2,9.67-2.01,9.67,7.5
		C537.61,170.01,537.61,170.67,537.61,171.34z"/>
	<path class="st8" d="M891.26,172.26c-0.78,3.73,1.96,8.71-3.38,12.04c-6.64,4.15-13.55,6.38-21.28,4.45
		c-3.94-0.98-6.57-3.67-7.47-7.85c-1.02-4.74,0.69-8.5,4.18-11.5c4.93-4.23,10.95-6.03,17.2-7.3c10.76-2.18,10.75-2.21,10.75,8.62
		C891.26,171.06,891.26,171.39,891.26,172.26z"/>
	<path class="st8" d="M1176.97,171.3c0,0.17,0.02,0.33,0,0.5c-0.54,4.47,1.82,9.51-3.86,12.82c-6.77,3.95-13.68,6.34-21.31,3.89
		c-8.16-2.62-9.89-12.29-3.45-18.47c4.84-4.65,11.05-6.52,17.46-7.84C1176.97,159.9,1176.97,159.9,1176.97,171.3z"/>
</g>
</svg>
